# xmcd
#
# Track frame offsets:
#	150
#	11151
#	21756
#	41327
#	52764
#	67129
#	83144
#	93258
#	105026
#	117404
#	131095
#	142772
#	154252
#	170254
#	185357
#	197636
#	207161
#	224342
#	239144
#	249570
#
# Disc length: 3502
#
# Revision: 2
# Processed by: cddbd v1.5.1PL0 Copyright (c) Steve Scherf et al.
# Submitted via: EasyCDDAExtractor 7.1.0.1
# Normalized: r1:DSETVAR1
#
DISCID=0f0dac14
DTITLE=Various Artist - 40 No.1 Hits
DYEAR=1900
DGENRE=Country
TTITLE0=Roger Miller - King  Of The Road
TTITLE1=Hank Locklin - Please Help Me I'm Falling
TTITLE2=Marty Robbins - El Paso
TTITLE3=Johnny Horton - The Battle Of New Orleans
TTITLE4=The Bellamy Brothers - If I Said You Had A Beautiful Body
TTITLE5=Randy Vanwarmer - Just When I Needed You Most
TTITLE6=Loretta Lynn - Somebody Somewhere
TTITLE7=Tammy Wynette - Stand By Your Man
TTITLE8=Johnny Cash - I Walk The Line
TTITLE9=Bobby Bare - Marie Levaux
TTITLE10=Boxcar Willie - Six Day On The Road
TTITLE11=Patsy Cline - Walking After Midnight
TTITLE12=Willie Nelson - Always On My Mind
TTITLE13=Billie Jo Spears - Blanket On The Ground
TTITLE14=Porter Wagoner - Satifisfied Mind
TTITLE15=Charley Pride - Kiss An Angel Goodmorning
TTITLE16=Kenny Rogers - Lady
TTITLE17=Slim Whitman - Mockingbird Hill
TTITLE18=Frankie Laine - Rawhide
TTITLE19=Faron Young - It's Four In The Morning
EXTD=
EXTT0=
EXTT1=
EXTT2=
EXTT3=
EXTT4=
EXTT5=
EXTT6=
EXTT7=
EXTT8=
EXTT9=
EXTT10=
EXTT11=
EXTT12=
EXTT13=
EXTT14=
EXTT15=
EXTT16=
EXTT17=
EXTT18=
EXTT19=
PLAYORDER=
